<svg xmlns="http://www.w3.org/2000/svg" xmlns:xlink="http://www.w3.org/1999/xlink" viewBox="1729 40 250 160">
  <defs>
    <style>
      .cls-1 {
        fill: url(#linear-gradient);
      }
    </style>
    <linearGradient id="linear-gradient" x1="0.5" x2="0.5" y2="1" gradientUnits="objectBoundingBox">
      <stop offset="0" stop-color="#75b9e3"/>
      <stop offset="1" stop-color="#bc4ed6"/>
    </linearGradient>
  </defs>
  <path id="path" class="cls-1" d="M71.075,21.991a5.7,5.7,0,0,0-5.06,5.8V176.246a5.682,5.682,0,1,0,11.364,0V27.79a5.724,5.724,0,0,0-1.844-4.335A5.664,5.664,0,0,0,71.075,21.991Zm139.2,0a5.7,5.7,0,0,0-5.06,5.8V176.246a5.682,5.682,0,1,0,11.364,0V27.79a5.724,5.724,0,0,0-1.844-4.335A5.665,5.665,0,0,0,210.278,21.991Zm-19.886,8.565a5.7,5.7,0,0,0-5.06,5.8V167.682a5.682,5.682,0,1,0,11.364,0V36.355a5.724,5.724,0,0,0-1.844-4.335A5.664,5.664,0,0,0,190.392,30.556ZM90.961,39.121a5.7,5.7,0,0,0-5.06,5.8v114.2a5.682,5.682,0,1,0,11.364,0V44.92a5.724,5.724,0,0,0-1.844-4.335A5.665,5.665,0,0,0,90.961,39.121Zm59.658,2.855a5.7,5.7,0,0,0-5.06,5.8V156.262a5.682,5.682,0,1,0,11.364,0V47.775a5.724,5.724,0,0,0-1.844-4.335,5.664,5.664,0,0,0-4.459-1.464Zm-99.431,5.71a5.7,5.7,0,0,0-5.06,5.8v97.067a5.682,5.682,0,1,0,11.364,0V53.484a5.724,5.724,0,0,0-1.844-4.335,5.665,5.665,0,0,0-4.459-1.464Zm119.317,0a5.7,5.7,0,0,0-5.06,5.8v97.067a5.682,5.682,0,1,0,11.364,0V53.484a5.724,5.724,0,0,0-1.844-4.335,5.665,5.665,0,0,0-4.459-1.464ZM11.061,53.4A5.7,5.7,0,0,0,6,59.194v85.648a5.682,5.682,0,1,0,11.364,0V59.194a5.724,5.724,0,0,0-1.844-4.335A5.665,5.665,0,0,0,11.061,53.4ZM130.733,56.25a5.7,5.7,0,0,0-5.06,5.8v79.938a5.682,5.682,0,1,0,11.364,0V62.049a5.724,5.724,0,0,0-1.844-4.335A5.665,5.665,0,0,0,130.733,56.25Zm99.431,0a5.7,5.7,0,0,0-5.06,5.8v79.938a5.682,5.682,0,1,0,11.364,0V62.049a5.724,5.724,0,0,0-1.844-4.335,5.665,5.665,0,0,0-4.459-1.464ZM31.3,61.96a5.7,5.7,0,0,0-5.06,5.8v68.518a5.682,5.682,0,1,0,11.364,0V67.759a5.724,5.724,0,0,0-1.844-4.335A5.664,5.664,0,0,0,31.3,61.96Zm79.545,5.71a5.7,5.7,0,0,0-5.06,5.8v57.1a5.682,5.682,0,1,0,11.364,0v-57.1a5.724,5.724,0,0,0-1.844-4.335,5.665,5.665,0,0,0-4.459-1.464ZM249.7,73.38a5.7,5.7,0,0,0-5.06,5.8v45.679a5.682,5.682,0,1,0,11.364,0V79.179a5.724,5.724,0,0,0-1.844-4.335A5.664,5.664,0,0,0,249.7,73.38Z" transform="translate(1723 18.043)"/>
</svg>
